Patient4_TMGait_0pt3_03_left_32_EMG.mot
version=1
nRows=26
nColumns=33
inDegrees=no
endheader
time	1LAddLong	2LGlutMax	3LGlutMed	4LIliopsoas	5LSemiMemb	6LBicFemLong	7LRecFem	8LVastMed	9LVastLat	10LGasMed	11LTibAnt	12lTibPost	13LPeroneusLong	14LSol	15LExtDigLong	16LFlexDigLong	17RAddLong	18RGlutMax	19RGlutMed	20RIliopsoas	21RSemiMemb	22RBicFemLong	23RRecFem	24RVastMed	25RVastLat	26RGasMed	27RTibAnt	28RTibPost	29RPeroneusLong	30RSol	31RExtDigLong	32RFlexDigLong
57.51	0.031281	0.14984	0.067139	-0.007324	0.056915	-0.19287	-0.25299	-0.007782	-0.025177	-0.40634	-0.018463	0.015259	0.17807	0.16144	-0.02533	-0.18738	0.009308	-0.34805	0.15808	-0.14328	0.12421	-0.031738	-0.15945	-0.031891	0.005951	0.02121	-0.048828	-0.50659	0.31754	-0.62332	0.003967	-0.023804
57.511	0.047455	0.13412	0.040283	0.010986	0.084534	-0.10376	-0.27832	-0.023956	0.011444	-0.19653	-0.015564	-0.017242	0.11108	0.1767	-0.079651	-0.1004	0.015411	-0.36102	0.18875	-0.029297	0.2536	-0.029297	-0.071716	-0.063171	-0.028381	0.025177	-0.014801	0.29816	0.23544	-0.26367	0	-0.010223
57.512	0.053101	0.050964	0.025635	0.003967	0.049591	0.072632	-0.27863	-0.02182	-0.061646	-0.19058	0.009155	-0.059052	-0.18692	0.002594	-0.10361	-0.024414	0.042419	-0.34302	0.047455	-0.030823	0.2211	-0.006561	0.000458	-0.11734	-0.031586	-0.028381	-0.001373	0.40939	0.28732	0.50873	-0.003204	-0.008545
57.513	0.034485	0.053101	0.042267	-0.016022	0.019379	0.15671	-0.24872	-0.020752	-0.12405	-0.040588	0.021057	-0.03891	-0.12528	-0.030518	-0.081482	0.016785	0.031738	-0.3305	0.10834	0.007324	-0.088348	0.029907	-0.11124	-0.056152	0.020294	-0.031433	-0.003357	-0.063019	0.36591	1.0664	-0.000916	0.003815
57.514	0.028534	0.013733	0.03418	-0.019379	-0.024109	0.13412	-0.24033	-0.009613	-0.11566	-0.035553	0.020447	-0.040436	0.00412	-0.070801	-0.051727	-0.005188	0.005188	-0.29358	0.11063	0.049286	-0.26321	-0.011139	-0.12878	-0.025787	0.049133	-0.032043	-0.000763	0.14664	0.19791	1.4516	0.001221	-0.001526
57.515	0.024567	0.018768	-0.017242	-0.002594	-0.052032	0.037689	-0.25772	-0.016632	-0.059967	0.11353	0.015564	-0.015411	-0.016327	-0.11032	-0.019531	-0.021973	0.018005	-0.31799	0.075378	0.11719	-0.030518	-0.066376	-0.062408	-0.058136	0.019073	0.003204	0.008545	0.19836	0.00885	1.1246	-0.00061	-0.005188
57.516	0.011597	-0.068665	-0.033875	0.041809	-0.057678	0.10208	-0.25314	-0.007629	-0.030365	0.31662	0.012665	0.005035	-0.048065	-0.001373	0.016479	-0.00473	0.026703	-0.24948	-0.084076	0.15945	0.026093	0.032806	0.024109	-0.012207	0.009918	0.007782	0.012817	0.076447	-0.12726	0.70633	0.000458	-0.002747
57.517	0.001831	-0.11459	-0.012207	0.034027	-0.02182	0.20813	-0.23819	-0.004883	-0.02121	0.41733	0.003204	-0.00473	-0.041351	0.037994	0.034332	-0.003204	0.023651	-0.25207	-0.07431	0.18112	0.039825	0.022125	0.019073	-0.025177	0.009766	0.017853	-0.017395	-0.066833	-0.1648	0.20355	0.00061	-0.008698
57.518	0.007324	-0.061646	-0.02655	0.028839	0.027618	0.20783	-0.23605	-0.004578	0.005341	0.41718	-0.008392	0.001526	0.008698	-0.028229	0.03891	-0.003204	0.028839	-0.27176	0.11597	0.096741	0.026703	0.024567	0.027924	-0.077972	0.005951	0.010681	-0.006714	-0.01236	-0.20523	-0.21942	-0.00061	0.004578
57.519	0.010681	-0.032043	0.002747	0.006866	0.055084	0.1918	-0.22629	0.003357	0.024261	0.17899	0.006714	-0.010529	0.13062	-0.042877	0.044098	0.001678	0.029602	-0.29098	-0.033112	0.025787	0.028076	-0.035706	-0.022736	-0.11826	0.013428	0.013123	0.016022	-0.02121	-0.097961	-0.027466	-0.000458	-0.003357
57.52	-0.002136	-0.03006	-0.15335	-0.007629	0.02182	0.13855	-0.24674	-0.003204	0.039825	-0.27924	-0.011597	-0.020599	0.080719	0.055847	0.029602	-0.005493	0.00351	-0.27741	-0.072784	0.033417	-0.040894	-0.01709	-0.00824	-0.068054	0.02121	0.011444	0.006104	-0.057831	0.11826	0.029755	0.003052	-0.003357
57.521	-0.014801	-0.007629	-0.2536	-0.00473	0.034332	0.089417	-0.25818	0.011597	0.041351	-0.35828	0.002441	-0.016785	0.076599	0.11169	0.006714	-0.000305	-0.013733	-0.32181	-0.00351	0.024109	0.003967	-0.070038	-0.006714	-0.03418	0.009308	-0.001373	0.021973	-0.05249	0.065613	-0.1178	0.001068	-0.000916
57.522	-0.012512	0.022736	-0.15701	-0.004578	-0.030975	0.041046	-0.24521	0.005188	0.032349	-0.31326	-0.002899	-0.010071	0.084686	0.045471	-0.002747	0.002136	-0.010834	-0.3215	0.056152	0.029755	0.029755	-0.065918	-0.015411	-0.040436	0.002899	-0.011139	0.0177	-0.037079	-0.049286	-0.045471	0.003052	-0.008698
57.523	-0.015106	-0.019531	0.078735	0.007629	-0.095215	-0.18555	-0.24109	0.001831	0.063934	-0.17166	0.016022	-0.00061	0.11795	-0.00412	0.008545	0.007172	-0.013733	-0.28961	0.11063	0.014648	-0.041809	-0.041351	-0.015717	-0.015259	0.01358	-0.011902	0.016785	-0.045929	-0.095367	0.054016	0.010071	-0.010681
57.524	-0.005493	-0.027313	0.15762	0.00946	-0.020142	-0.31906	-0.22659	0.005798	0.058899	0.041962	-0.005341	0.007629	0.08255	0.009613	0.013275	-0.002289	-0.005646	-0.32776	0.37689	-0.032349	-0.10559	-0.077209	-0.039825	0.003052	0.010986	-0.00473	0.005951	-0.072021	-0.09201	0.23468	-0.001984	-0.009918
57.525	-0.009613	0.020142	0.27069	0.018921	0.025177	-0.092468	-0.233	0.011902	-0.078125	0.30334	0.016174	0.005493	0.15869	0.027924	0.005188	0.009308	-0.044861	-0.33829	0.14832	-0.037231	-0.11292	0.054016	-0.070953	0.063171	0.019684	-0.012512	0.002747	-0.014191	0.063171	0.18814	0.000916	-0.020752
57.526	-0.018921	0.1207	0.24384	0.00412	0.090485	-0.11871	-0.21881	0.006256	-0.11139	0.052032	-0.006561	0.005798	0.19302	0.063171	-0.002594	0.002441	-0.065308	-0.25024	0.035706	-0.022736	-0.034943	0.24475	-0.087128	-0.021973	0.005188	-0.000153	0.003967	-0.029449	0.14832	0.10605	0.001831	-0.009766
57.527	-0.017242	0.18295	0.15411	0.008087	0.028534	-0.25696	-0.22659	0.003204	-0.084534	-0.23621	-0.013733	-0.000305	0.23575	0.070343	-0.073853	-0.00885	-0.02655	-0.26749	0.14282	-0.050659	-0.043182	0.30624	-0.076599	0.01358	-0.006104	0.00946	-0.008545	-0.024109	0.18417	0.007172	0.000763	-0.012512
57.528	-0.00885	0.076904	0.064087	-0.00351	0.009918	-0.13733	-0.22232	0.000305	-0.039368	-0.33066	-0.029297	0.000916	0.19119	0.10239	-0.02243	-0.000458	-0.007019	-0.24338	0.19898	-0.058441	0.067139	0.21332	-0.044708	0.009308	-0.00473	0.00946	0.015411	-0.03479	0.005341	0.013428	-0.000458	-0.011139
57.529	0.015106	0.068817	-0.057831	-0.012207	0.056	-0.11459	-0.25879	0.003052	0.041504	-0.31128	-0.022125	0.010223	-0.30456	0.10803	0.02655	-0.006256	0.006256	-0.22995	0.17242	-0.068054	0.10986	0.068054	-0.003204	0.027161	0.009155	0.008087	0.014191	-0.020294	-0.088959	-0.042877	0.010834	-0.010834
57.53	0.049133	0.030975	-0.21957	0.011444	0.062866	-0.020447	-0.20615	0.007629	-0.00946	-0.19745	0.004272	-0.004425	-0.19653	0.005493	-0.088348	-0.011444	0.033112	-0.21698	0.13947	-0.095062	0.11429	-0.035706	0.030212	-0.066376	-0.011444	-0.012054	0.003052	-0.024719	-0.048981	-0.32593	0.001526	-0.007019
57.531	0.027161	-0.067596	-0.25711	0.012207	-0.009308	0.06134	-0.18768	0.010681	-0.000458	-0.12466	0.014496	-0.001221	0.025177	0.001984	-0.11643	-0.000305	0.009766	-0.29129	0.17319	-0.065155	0.008087	0.014038	-0.032806	-0.027924	0.001984	-0.013733	-0.015106	-0.028839	0.023193	-0.31052	0.003967	-0.005341
57.532	0.01297	-0.068512	-0.13107	0.012817	-0.028534	0.10498	-0.18982	0.010681	0.12451	-0.085754	0.014954	0.001068	-0.1297	0.025635	-0.085907	0.008545	-0.014648	-0.27344	0.20966	-0.022583	-0.1001	-0.005951	-0.040436	0.013275	0.021057	-0.006866	-0.019226	-0.022125	0.093842	-0.047913	0.000458	-0.007629
57.533	0.001984	-0.11581	0.060883	0.017395	-0.007782	0.097656	-0.16373	-0.00412	0.27924	0.012207	0.016479	-0.007019	-0.10605	0.048065	-0.080872	-0.002441	-0.006866	-0.26077	0.29037	0.057983	-0.001221	-0.13077	-0.039825	-0.029602	0.010529	-0.009613	-0.005493	-0.019379	0.11414	-0.18478	0.000916	-0.005188
57.534	-0.009613	-0.12787	0.04715	0.002136	-0.061493	0.10742	-0.19287	0.006714	0.34271	0.052185	0.010986	-0.013733	-0.080109	0.020752	-0.035553	-0.003815	0.028992	-0.32333	0.25787	0.088654	-0.087585	-0.16754	-0.035706	-0.024109	-0.010986	-0.000763	0.015564	-0.034027	0.12299	-0.12436	0	0.006104
57.535	-0.010223	-0.14893	-0.10178	-0.013733	-0.13428	0.078735	-0.32623	-0.006104	0.37643	-0.11047	0.00885	0.001221	-0.078583	-0.049896	0.10269	0.007477	0.054626	-0.29816	0.15259	0.095825	-0.22858	-0.10178	-0.029907	-0.057526	0.01358	0	0.030212	0.000916	0.071259	0.28397	0.00061	0.001984
